# xmcd
#
# Track frame offsets: 
#        150
#        17287
#        37699
#        54991
#        91637
#        112159
#        133390
#        163048
#        179927
#        192763
#        207653
#        221354
#        250788
#        274805
#        307697
#        317001
#        337625
#
# Disc length: 4765 seconds
#
# Revision: 1
# Processed by: cddbd v1.5.2PL0 Copyright (c) Steve Scherf et al.
# Submitted via: ExactAudioCopy v1.3
#
DISCID=e4129b11
DTITLE=Various Artist - Akella Presents - vol. 152 - Various Styles O
DTITLE=f Blues  CD2
DYEAR=2018
DGENRE=Blues
TTITLE0=John Sutton Band - Some Kind Of Woman
TTITLE1=Gino Matteo - Grandma Told Me
TTITLE2=The Theory - What Will You Do
TTITLE3=JP Soars - Gypsy Woman
TTITLE4=The Crudup Brothers - Memories Of Miseries
TTITLE5=Deb Ryder and Mike Finnigan - For The Last Time
TTITLE6=Ty Curtis - Lose Yourself
TTITLE7=Jon Tiven Group - It's Harder Now
TTITLE8=Zachary Richard - Zydeco Jump
TTITLE9=Betho Ieesus - Buddy Blues
TTITLE10=Shaun Murphy - Hopelessly In Love With You
TTITLE11=The Associates - Prisoner
TTITLE12=Van Galen Band - The Other Side
TTITLE13=Righteous Continental - Leaving This World Tonight
TTITLE14=Dave Hole - Goin’ Back Down
TTITLE15=Nico Backton - Valentine’s Day Blues
TTITLE16=Carl Verheyen - Dodging The Blues
EXTD=
EXTT0=
EXTT1=
EXTT2=
EXTT3=
EXTT4=
EXTT5=
EXTT6=
EXTT7=
EXTT8=
EXTT9=
EXTT10=
EXTT11=
EXTT12=
EXTT13=
EXTT14=
EXTT15=
EXTT16=
PLAYORDER=
